<svg width="36.25in" height="24.125in" viewBox="0 0 36.25 24.125" xmlns="http://www.w3.org/2000/svg" version="1.1" preserveAspectRatio="xMidYMid meet"><g id="svgGroup" stroke-linecap="round" fill-rule="evenodd" font-size="9pt" stroke="#000" stroke-width="0.25mm" fill="none" style="stroke:#000;stroke-width:0.25mm;fill:none"><path d="M 0 20.125 L 0 21.579 L 0.118 21.579 L 0.118 22.671 L 0 22.671 L 0 23.762 L 0 24.125 L 1.088 24.125 L 1.088 24.007 L 2.18 24.007 L 2.18 24.125 L 3.271 24.125 L 3.271 24.007 L 4.363 24.007 L 4.363 24.125 L 5.454 24.125 L 5.454 24.007 L 6.546 24.007 L 6.546 24.125 L 7.637 24.125 L 7.637 24.007 L 8.729 24.007 L 8.729 24.125 L 9.82 24.125 L 9.82 24.007 L 10.912 24.007 L 10.912 24.125 L 12 24.125 L 12 22.671 L 11.882 22.671 L 11.882 21.579 L 12 21.579 L 12 20.488 L 12 20.125 L 10.912 20.125 L 10.912 20.243 L 9.82 20.243 L 9.82 20.125 L 8.729 20.125 L 8.729 20.243 L 7.637 20.243 L 7.637 20.125 L 6.546 20.125 L 6.546 20.243 L 5.454 20.243 L 5.454 20.125 L 4.363 20.125 L 4.363 20.243 L 3.271 20.243 L 3.271 20.125 L 2.18 20.125 L 2.18 20.243 L 1.088 20.243 L 1.088 20.125 L 0 20.125 Z" id="front_outsideCutPath" stroke="#FF0000" stroke-width="0.1" style="stroke:#FF0000;stroke-width:0.1" vector-effect="non-scaling-stroke"/><path d="M 6.583 22.427 L 6.518 22.427 L 6.518 22.15 A 0.183 0.183 0 0 0 6.516 22.121 Q 6.514 22.106 6.508 22.094 A 0.077 0.077 0 0 0 6.494 22.072 Q 6.475 22.051 6.438 22.047 A 0.172 0.172 0 0 0 6.42 22.046 Q 6.375 22.046 6.347 22.062 A 0.091 0.091 0 0 0 6.321 22.083 Q 6.293 22.116 6.29 22.188 A 0.416 0.416 0 0 0 6.29 22.203 L 6.29 22.427 L 6.225 22.427 L 6.225 21.999 L 6.278 21.999 L 6.288 22.058 L 6.292 22.058 A 0.131 0.131 0 0 1 6.343 22.011 A 0.158 0.158 0 0 1 6.347 22.009 A 0.176 0.176 0 0 1 6.41 21.992 A 0.212 0.212 0 0 1 6.428 21.991 Q 6.505 21.991 6.544 22.029 A 0.112 0.112 0 0 1 6.571 22.071 Q 6.578 22.089 6.581 22.111 A 0.283 0.283 0 0 1 6.583 22.148 L 6.583 22.427 Z M 5.337 21.999 L 5.337 22.049 L 5.228 22.049 L 5.228 22.427 L 5.163 22.427 L 5.163 22.049 L 5.087 22.049 L 5.087 22.02 L 5.163 21.997 L 5.163 21.973 Q 5.163 21.815 5.301 21.815 A 0.209 0.209 0 0 1 5.331 21.817 Q 5.345 21.819 5.361 21.823 A 0.42 0.42 0 0 1 5.381 21.829 L 5.364 21.881 A 0.315 0.315 0 0 0 5.34 21.874 Q 5.327 21.871 5.317 21.87 A 0.139 0.139 0 0 0 5.3 21.869 A 0.087 0.087 0 0 0 5.279 21.871 A 0.056 0.056 0 0 0 5.246 21.893 A 0.075 0.075 0 0 0 5.236 21.913 Q 5.229 21.932 5.228 21.962 A 0.306 0.306 0 0 0 5.228 21.971 L 5.228 21.999 L 5.337 21.999 Z M 6.913 22.374 L 6.913 22.423 A 0.064 0.064 0 0 1 6.906 22.426 Q 6.897 22.429 6.886 22.431 A 0.243 0.243 0 0 1 6.882 22.432 A 0.281 0.281 0 0 1 6.864 22.434 Q 6.854 22.435 6.845 22.435 A 0.169 0.169 0 0 1 6.795 22.428 Q 6.74 22.411 6.726 22.352 A 0.204 0.204 0 0 1 6.721 22.304 L 6.721 22.049 L 6.66 22.049 L 6.66 22.018 L 6.721 21.991 L 6.748 21.9 L 6.786 21.9 L 6.786 21.999 L 6.91 21.999 L 6.91 22.049 L 6.786 22.049 L 6.786 22.301 A 0.131 0.131 0 0 0 6.788 22.324 Q 6.792 22.347 6.804 22.361 A 0.06 0.06 0 0 0 6.841 22.38 A 0.087 0.087 0 0 0 6.854 22.381 A 0.213 0.213 0 0 0 6.886 22.379 A 0.195 0.195 0 0 0 6.888 22.379 Q 6.898 22.377 6.905 22.376 A 0.136 0.136 0 0 0 6.912 22.374 Z M 5.662 21.996 L 5.653 22.056 Q 5.626 22.05 5.606 22.05 A 0.112 0.112 0 0 0 5.523 22.086 A 0.154 0.154 0 0 0 5.517 22.092 A 0.148 0.148 0 0 0 5.481 22.176 A 0.197 0.197 0 0 0 5.48 22.197 L 5.48 22.427 L 5.415 22.427 L 5.415 21.999 L 5.469 21.999 L 5.476 22.078 L 5.479 22.078 Q 5.503 22.037 5.537 22.014 A 0.129 0.129 0 0 1 5.611 21.991 A 0.298 0.298 0 0 1 5.637 21.992 A 0.217 0.217 0 0 1 5.662 21.996 Z M 6.106 22.278 A 0.335 0.335 0 0 0 6.112 22.213 Q 6.112 22.171 6.103 22.136 A 0.202 0.202 0 0 0 6.059 22.051 A 0.17 0.17 0 0 0 5.98 22 A 0.218 0.218 0 0 0 5.916 21.991 A 0.252 0.252 0 0 0 5.871 21.995 A 0.172 0.172 0 0 0 5.771 22.05 A 0.179 0.179 0 0 0 5.749 22.08 Q 5.718 22.133 5.718 22.213 A 0.324 0.324 0 0 0 5.722 22.265 A 0.24 0.24 0 0 0 5.742 22.331 A 0.213 0.213 0 0 0 5.747 22.34 A 0.176 0.176 0 0 0 5.811 22.408 A 0.181 0.181 0 0 0 5.853 22.426 A 0.208 0.208 0 0 0 5.913 22.435 A 0.252 0.252 0 0 0 5.957 22.431 A 0.173 0.173 0 0 0 6.059 22.376 A 0.181 0.181 0 0 0 6.08 22.347 Q 6.098 22.317 6.106 22.278 Z M 5.785 22.213 A 0.328 0.328 0 0 0 5.788 22.26 Q 5.792 22.283 5.799 22.303 A 0.136 0.136 0 0 0 5.818 22.338 A 0.106 0.106 0 0 0 5.887 22.378 A 0.161 0.161 0 0 0 5.915 22.381 A 0.151 0.151 0 0 0 5.954 22.376 A 0.105 0.105 0 0 0 6.011 22.338 A 0.139 0.139 0 0 0 6.033 22.296 Q 6.039 22.276 6.042 22.252 A 0.342 0.342 0 0 0 6.044 22.213 A 0.324 0.324 0 0 0 6.041 22.167 Q 6.034 22.118 6.011 22.089 A 0.107 0.107 0 0 0 5.945 22.049 A 0.164 0.164 0 0 0 5.914 22.046 A 0.154 0.154 0 0 0 5.875 22.051 A 0.103 0.103 0 0 0 5.818 22.088 Q 5.785 22.13 5.785 22.213 Z" id="front_labelLayer" stroke="#777777" fill="#777777" style="stroke:#777777;fill:#777777" vector-effect="non-scaling-stroke"/><path d="M 12.243 20.125 L 12.243 21.579 L 12.125 21.579 L 12.125 22.671 L 12.243 22.671 L 12.243 23.762 L 12.243 24.125 L 13.213 24.125 L 13.213 24.007 L 14.305 24.007 L 14.305 24.125 L 15.396 24.125 L 15.396 24.007 L 16.488 24.007 L 16.488 24.125 L 17.579 24.125 L 17.579 24.007 L 18.671 24.007 L 18.671 24.125 L 19.762 24.125 L 19.762 24.007 L 20.854 24.007 L 20.854 24.125 L 21.945 24.125 L 21.945 24.007 L 23.037 24.007 L 23.037 24.125 L 24.007 24.125 L 24.007 22.671 L 24.125 22.671 L 24.125 21.579 L 24.007 21.579 L 24.007 20.488 L 24.007 20.125 L 23.037 20.125 L 23.037 20.243 L 21.945 20.243 L 21.945 20.125 L 20.854 20.125 L 20.854 20.243 L 19.762 20.243 L 19.762 20.125 L 18.671 20.125 L 18.671 20.243 L 17.579 20.243 L 17.579 20.125 L 16.488 20.125 L 16.488 20.243 L 15.396 20.243 L 15.396 20.125 L 14.305 20.125 L 14.305 20.243 L 13.213 20.243 L 13.213 20.125 L 12.243 20.125 Z" id="left_outsideCutPath" stroke="#FF0000" stroke-width="0.1" style="stroke:#FF0000;stroke-width:0.1" vector-effect="non-scaling-stroke"/><path d="M 18.41 21.999 L 18.41 22.049 L 18.301 22.049 L 18.301 22.427 L 18.236 22.427 L 18.236 22.049 L 18.159 22.049 L 18.159 22.02 L 18.236 21.997 L 18.236 21.973 Q 18.236 21.815 18.374 21.815 A 0.209 0.209 0 0 1 18.403 21.817 Q 18.418 21.819 18.434 21.823 A 0.42 0.42 0 0 1 18.453 21.829 L 18.437 21.881 A 0.315 0.315 0 0 0 18.412 21.874 Q 18.4 21.871 18.389 21.87 A 0.139 0.139 0 0 0 18.372 21.869 A 0.087 0.087 0 0 0 18.351 21.871 A 0.056 0.056 0 0 0 18.318 21.893 A 0.075 0.075 0 0 0 18.308 21.913 Q 18.302 21.932 18.301 21.962 A 0.306 0.306 0 0 0 18.301 21.971 L 18.301 21.999 L 18.41 21.999 Z M 18.106 22.184 L 18.106 22.225 L 17.811 22.225 Q 17.813 22.3 17.849 22.339 A 0.118 0.118 0 0 0 17.911 22.374 A 0.179 0.179 0 0 0 17.951 22.378 A 0.342 0.342 0 0 0 18.079 22.353 A 0.393 0.393 0 0 0 18.088 22.349 L 18.088 22.407 Q 18.053 22.422 18.023 22.429 Q 17.999 22.434 17.967 22.435 A 0.528 0.528 0 0 1 17.949 22.435 A 0.252 0.252 0 0 1 17.886 22.427 A 0.178 0.178 0 0 1 17.799 22.377 Q 17.744 22.319 17.744 22.217 A 0.34 0.34 0 0 1 17.75 22.149 Q 17.759 22.108 17.778 22.076 A 0.192 0.192 0 0 1 17.795 22.052 A 0.166 0.166 0 0 1 17.916 21.992 A 0.229 0.229 0 0 1 17.932 21.991 A 0.198 0.198 0 0 1 17.987 21.999 A 0.15 0.15 0 0 1 18.059 22.044 A 0.181 0.181 0 0 1 18.1 22.127 A 0.264 0.264 0 0 1 18.106 22.184 Z M 18.685 22.374 L 18.685 22.423 A 0.064 0.064 0 0 1 18.677 22.426 Q 18.669 22.429 18.657 22.431 A 0.243 0.243 0 0 1 18.654 22.432 A 0.281 0.281 0 0 1 18.635 22.434 Q 18.625 22.435 18.617 22.435 A 0.169 0.169 0 0 1 18.567 22.428 Q 18.512 22.411 18.497 22.352 A 0.204 0.204 0 0 1 18.492 22.304 L 18.492 22.049 L 18.431 22.049 L 18.431 22.018 L 18.492 21.991 L 18.52 21.9 L 18.557 21.9 L 18.557 21.999 L 18.681 21.999 L 18.681 22.049 L 18.557 22.049 L 18.557 22.301 A 0.131 0.131 0 0 0 18.559 22.324 Q 18.563 22.347 18.576 22.361 A 0.06 0.06 0 0 0 18.613 22.38 A 0.087 0.087 0 0 0 18.626 22.381 A 0.213 0.213 0 0 0 18.657 22.379 A 0.195 0.195 0 0 0 18.659 22.379 Q 18.669 22.377 18.677 22.376 A 0.136 0.136 0 0 0 18.684 22.374 Z M 17.63 21.819 L 17.63 22.427 L 17.565 22.427 L 17.565 21.819 L 17.63 21.819 Z M 17.813 22.172 L 18.037 22.172 A 0.221 0.221 0 0 0 18.034 22.137 Q 18.028 22.101 18.009 22.078 A 0.089 0.089 0 0 0 17.956 22.048 A 0.133 0.133 0 0 0 17.931 22.045 A 0.128 0.128 0 0 0 17.894 22.051 A 0.099 0.099 0 0 0 17.849 22.079 A 0.128 0.128 0 0 0 17.823 22.122 Q 17.815 22.144 17.813 22.172 Z" id="left_labelLayer" stroke="#777777" fill="#777777" style="stroke:#777777;fill:#777777" vector-effect="non-scaling-stroke"/><path d="M 24.368 12.243 L 24.368 13.213 L 24.25 13.213 L 24.25 14.305 L 24.368 14.305 L 24.368 15.396 L 24.25 15.396 L 24.25 16.488 L 24.368 16.488 L 24.368 17.579 L 24.25 17.579 L 24.25 18.671 L 24.368 18.671 L 24.368 19.762 L 24.25 19.762 L 24.25 20.854 L 24.368 20.854 L 24.368 21.945 L 24.25 21.945 L 24.25 23.037 L 24.368 23.037 L 24.368 24.007 L 25.338 24.007 L 25.338 24.125 L 26.43 24.125 L 26.43 24.007 L 27.521 24.007 L 27.521 24.125 L 28.613 24.125 L 28.613 24.007 L 29.704 24.007 L 29.704 24.125 L 30.796 24.125 L 30.796 24.007 L 31.887 24.007 L 31.887 24.125 L 32.979 24.125 L 32.979 24.007 L 34.07 24.007 L 34.07 24.125 L 35.162 24.125 L 35.162 24.007 L 36.132 24.007 L 36.132 23.037 L 36.25 23.037 L 36.25 21.945 L 36.132 21.945 L 36.132 20.854 L 36.25 20.854 L 36.25 19.762 L 36.132 19.762 L 36.132 18.671 L 36.25 18.671 L 36.25 17.579 L 36.132 17.579 L 36.132 16.488 L 36.25 16.488 L 36.25 15.396 L 36.132 15.396 L 36.132 14.305 L 36.25 14.305 L 36.25 13.213 L 36.132 13.213 L 36.132 12.243 L 35.162 12.243 L 35.162 12.125 L 34.07 12.125 L 34.07 12.243 L 32.979 12.243 L 32.979 12.125 L 31.887 12.125 L 31.887 12.243 L 30.796 12.243 L 30.796 12.125 L 29.704 12.125 L 29.704 12.243 L 28.613 12.243 L 28.613 12.125 L 27.521 12.125 L 27.521 12.243 L 26.43 12.243 L 26.43 12.125 L 25.338 12.125 L 25.338 12.243 L 24.368 12.243 Z" id="top_outsideCutPath" stroke="#FF0000" stroke-width="0.1" style="stroke:#FF0000;stroke-width:0.1" vector-effect="non-scaling-stroke"/><path d="M 31.112 18.463 L 31.098 18.463 A 1.841 1.841 0 0 1 31.111 18.599 A 1.543 1.543 0 0 1 31.112 18.676 L 31.112 19.204 L 30.918 19.204 L 30.918 17.343 L 31.076 17.343 L 31.103 17.519 L 31.112 17.519 A 0.524 0.524 0 0 1 31.188 17.433 A 0.405 0.405 0 0 1 31.287 17.367 A 0.487 0.487 0 0 1 31.427 17.326 A 0.631 0.631 0 0 1 31.516 17.32 Q 31.771 17.32 31.91 17.495 Q 32.023 17.637 32.044 17.874 A 1.267 1.267 0 0 1 32.049 17.984 A 1.141 1.141 0 0 1 32.034 18.176 Q 32.016 18.279 31.979 18.361 A 0.547 0.547 0 0 1 31.908 18.476 A 0.461 0.461 0 0 1 31.58 18.648 A 0.66 0.66 0 0 1 31.516 18.651 A 0.59 0.59 0 0 1 31.367 18.633 A 0.513 0.513 0 0 1 31.287 18.605 A 0.431 0.431 0 0 1 31.112 18.463 Z M 29.212 18.467 L 29.212 18.616 A 0.191 0.191 0 0 1 29.189 18.625 Q 29.165 18.633 29.13 18.639 A 0.728 0.728 0 0 1 29.119 18.641 A 0.843 0.843 0 0 1 29.064 18.648 Q 29.038 18.651 29.014 18.651 A 0.498 0.498 0 0 1 29.008 18.651 Q 28.711 18.651 28.65 18.401 A 0.611 0.611 0 0 1 28.635 18.259 L 28.635 17.495 L 28.451 17.495 L 28.451 17.401 L 28.635 17.32 L 28.717 17.046 L 28.83 17.046 L 28.83 17.343 L 29.202 17.343 L 29.202 17.495 L 28.83 17.495 L 28.83 18.25 Q 28.83 18.332 28.857 18.387 A 0.189 0.189 0 0 0 28.885 18.429 A 0.181 0.181 0 0 0 28.996 18.488 A 0.26 0.26 0 0 0 29.036 18.491 A 0.639 0.639 0 0 0 29.13 18.484 A 0.592 0.592 0 0 0 29.136 18.483 A 1.053 1.053 0 0 0 29.164 18.478 Q 29.192 18.473 29.212 18.467 Z M 30.577 17.984 Q 30.577 18.298 30.419 18.475 Q 30.261 18.651 29.982 18.651 A 0.625 0.625 0 0 1 29.8 18.626 A 0.542 0.542 0 0 1 29.676 18.57 A 0.527 0.527 0 0 1 29.484 18.366 A 0.639 0.639 0 0 1 29.47 18.338 A 0.72 0.72 0 0 1 29.409 18.142 A 0.973 0.973 0 0 1 29.397 17.984 Q 29.397 17.745 29.488 17.587 A 0.537 0.537 0 0 1 29.554 17.495 A 0.515 0.515 0 0 1 29.854 17.332 A 0.756 0.756 0 0 1 29.99 17.32 Q 30.259 17.32 30.418 17.499 A 0.606 0.606 0 0 1 30.55 17.756 Q 30.577 17.86 30.577 17.984 Z M 29.64 18.254 A 0.408 0.408 0 0 0 29.697 18.359 Q 29.795 18.488 29.986 18.488 A 0.452 0.452 0 0 0 30.106 18.473 A 0.314 0.314 0 0 0 30.276 18.36 Q 30.375 18.232 30.375 17.984 Q 30.375 17.827 30.335 17.719 A 0.401 0.401 0 0 0 30.276 17.612 Q 30.177 17.485 29.984 17.485 A 0.463 0.463 0 0 0 29.869 17.499 A 0.31 0.31 0 0 0 29.696 17.611 Q 29.626 17.701 29.606 17.855 A 1.028 1.028 0 0 0 29.598 17.984 Q 29.598 18.144 29.64 18.254 Z M 31.112 17.941 L 31.112 17.984 Q 31.112 18.214 31.178 18.333 A 0.293 0.293 0 0 0 31.203 18.372 A 0.282 0.282 0 0 0 31.346 18.468 Q 31.394 18.483 31.452 18.487 A 0.626 0.626 0 0 0 31.492 18.488 A 0.328 0.328 0 0 0 31.62 18.464 Q 31.693 18.434 31.746 18.364 A 0.388 0.388 0 0 0 31.753 18.354 A 0.47 0.47 0 0 0 31.817 18.216 Q 31.847 18.115 31.847 17.982 A 0.982 0.982 0 0 0 31.838 17.843 Q 31.818 17.702 31.753 17.613 A 0.303 0.303 0 0 0 31.532 17.487 A 0.419 0.419 0 0 0 31.487 17.485 A 0.561 0.561 0 0 0 31.383 17.494 Q 31.324 17.505 31.28 17.53 A 0.257 0.257 0 0 0 31.203 17.594 Q 31.12 17.696 31.113 17.911 A 1.238 1.238 0 0 0 31.112 17.941 Z" id="top_labelLayer" stroke="#777777" fill="#777777" style="stroke:#777777;fill:#777777" vector-effect="non-scaling-stroke"/><path d="M 0 16 L 0 17.454 L 0.118 17.454 L 0.118 18.546 L 0 18.546 L 0 19.637 L 0 20 L 1.088 20 L 1.088 19.882 L 2.18 19.882 L 2.18 20 L 3.271 20 L 3.271 19.882 L 4.363 19.882 L 4.363 20 L 5.454 20 L 5.454 19.882 L 6.546 19.882 L 6.546 20 L 7.637 20 L 7.637 19.882 L 8.729 19.882 L 8.729 20 L 9.82 20 L 9.82 19.882 L 10.912 19.882 L 10.912 20 L 12 20 L 12 18.546 L 11.882 18.546 L 11.882 17.454 L 12 17.454 L 12 16.363 L 12 16 L 10.912 16 L 10.912 16.118 L 9.82 16.118 L 9.82 16 L 8.729 16 L 8.729 16.118 L 7.637 16.118 L 7.637 16 L 6.546 16 L 6.546 16.118 L 5.454 16.118 L 5.454 16 L 4.363 16 L 4.363 16.118 L 3.271 16.118 L 3.271 16 L 2.18 16 L 2.18 16.118 L 1.088 16.118 L 1.088 16 L 0 16 Z" id="back_outsideCutPath" stroke="#FF0000" stroke-width="0.1" style="stroke:#FF0000;stroke-width:0.1" vector-effect="non-scaling-stroke"/><path d="M 6.548 18.081 L 6.551 18.081 A 0.384 0.384 0 0 1 6.56 18.068 Q 6.576 18.047 6.602 18.018 L 6.74 17.872 L 6.817 17.872 L 6.644 18.054 L 6.829 18.3 L 6.751 18.3 L 6.6 18.098 L 6.551 18.14 L 6.551 18.3 L 6.487 18.3 L 6.487 17.692 L 6.551 17.692 L 6.551 18.014 A 0.432 0.432 0 0 1 6.551 18.027 Q 6.55 18.047 6.548 18.081 Z M 5.236 18.245 L 5.231 18.245 L 5.217 18.3 L 5.171 18.3 L 5.171 17.692 L 5.236 17.692 L 5.236 17.84 A 1.352 1.352 0 0 1 5.235 17.886 Q 5.234 17.907 5.233 17.926 A 0.815 0.815 0 0 1 5.232 17.929 L 5.236 17.929 A 0.147 0.147 0 0 1 5.343 17.866 A 0.221 0.221 0 0 1 5.37 17.865 A 0.198 0.198 0 0 1 5.426 17.872 A 0.148 0.148 0 0 1 5.501 17.922 A 0.191 0.191 0 0 1 5.534 17.987 Q 5.543 18.014 5.546 18.045 A 0.416 0.416 0 0 1 5.548 18.086 A 0.38 0.38 0 0 1 5.543 18.15 Q 5.537 18.184 5.524 18.211 A 0.182 0.182 0 0 1 5.501 18.249 A 0.154 0.154 0 0 1 5.391 18.307 A 0.22 0.22 0 0 1 5.37 18.308 A 0.197 0.197 0 0 1 5.32 18.302 A 0.171 0.171 0 0 1 5.294 18.292 A 0.144 0.144 0 0 1 5.236 18.245 Z M 5.972 18.3 L 5.924 18.3 L 5.911 18.239 L 5.908 18.239 Q 5.876 18.279 5.844 18.294 Q 5.818 18.305 5.781 18.307 A 0.292 0.292 0 0 1 5.765 18.308 A 0.199 0.199 0 0 1 5.724 18.304 Q 5.7 18.299 5.681 18.287 A 0.112 0.112 0 0 1 5.665 18.275 Q 5.629 18.242 5.629 18.182 Q 5.629 18.056 5.823 18.046 A 0.633 0.633 0 0 1 5.836 18.046 L 5.909 18.043 L 5.909 18.017 A 0.186 0.186 0 0 0 5.907 17.99 Q 5.905 17.976 5.901 17.965 A 0.072 0.072 0 0 0 5.887 17.942 A 0.066 0.066 0 0 0 5.86 17.925 Q 5.85 17.921 5.836 17.919 A 0.16 0.16 0 0 0 5.818 17.918 Q 5.775 17.918 5.723 17.94 A 0.434 0.434 0 0 0 5.697 17.951 L 5.677 17.902 Q 5.709 17.884 5.746 17.875 Q 5.784 17.865 5.822 17.865 A 0.274 0.274 0 0 1 5.864 17.868 Q 5.885 17.871 5.902 17.878 A 0.11 0.11 0 0 1 5.935 17.899 Q 5.972 17.933 5.972 18.008 L 5.972 18.3 Z M 6.391 17.886 L 6.371 17.941 A 0.288 0.288 0 0 0 6.34 17.931 A 0.345 0.345 0 0 0 6.325 17.927 Q 6.303 17.922 6.285 17.922 A 0.144 0.144 0 0 0 6.28 17.921 A 0.144 0.144 0 0 0 6.221 17.932 Q 6.149 17.964 6.149 18.088 Q 6.149 18.14 6.163 18.176 A 0.134 0.134 0 0 0 6.181 18.209 Q 6.213 18.251 6.275 18.251 A 0.271 0.271 0 0 0 6.35 18.24 A 0.335 0.335 0 0 0 6.385 18.228 L 6.385 18.286 A 0.184 0.184 0 0 1 6.34 18.302 Q 6.312 18.308 6.277 18.308 A 0.242 0.242 0 0 1 6.218 18.301 A 0.164 0.164 0 0 1 6.133 18.251 A 0.188 0.188 0 0 1 6.094 18.179 Q 6.085 18.151 6.083 18.116 A 0.392 0.392 0 0 1 6.082 18.089 Q 6.082 18.011 6.109 17.959 A 0.179 0.179 0 0 1 6.134 17.923 A 0.168 0.168 0 0 1 6.226 17.87 A 0.255 0.255 0 0 1 6.281 17.864 A 0.293 0.293 0 0 1 6.343 17.871 A 0.324 0.324 0 0 1 6.361 17.875 Q 6.37 17.878 6.377 17.88 A 0.128 0.128 0 0 1 6.391 17.886 Z M 5.29 17.935 A 0.086 0.086 0 0 0 5.265 17.957 Q 5.239 17.991 5.236 18.064 A 0.5 0.5 0 0 0 5.236 18.086 Q 5.236 18.176 5.266 18.215 Q 5.293 18.249 5.349 18.253 A 0.209 0.209 0 0 0 5.362 18.254 A 0.129 0.129 0 0 0 5.399 18.249 A 0.093 0.093 0 0 0 5.451 18.21 A 0.149 0.149 0 0 0 5.47 18.17 Q 5.475 18.151 5.478 18.128 A 0.372 0.372 0 0 0 5.48 18.085 Q 5.48 18.006 5.454 17.965 A 0.107 0.107 0 0 0 5.451 17.96 Q 5.422 17.919 5.361 17.919 Q 5.317 17.919 5.29 17.935 Z M 5.907 18.128 L 5.907 18.089 L 5.843 18.092 Q 5.778 18.094 5.744 18.11 A 0.1 0.1 0 0 0 5.731 18.116 A 0.069 0.069 0 0 0 5.698 18.166 A 0.102 0.102 0 0 0 5.697 18.182 A 0.093 0.093 0 0 0 5.699 18.204 Q 5.704 18.224 5.718 18.236 Q 5.739 18.254 5.778 18.254 Q 5.83 18.254 5.863 18.229 A 0.108 0.108 0 0 0 5.873 18.221 A 0.109 0.109 0 0 0 5.903 18.167 A 0.165 0.165 0 0 0 5.907 18.129 Z" id="back_labelLayer" stroke="#777777" fill="#777777" style="stroke:#777777;fill:#777777" vector-effect="non-scaling-stroke"/><path d="M 12.243 16 L 12.243 17.454 L 12.125 17.454 L 12.125 18.546 L 12.243 18.546 L 12.243 19.637 L 12.243 20 L 13.213 20 L 13.213 19.882 L 14.305 19.882 L 14.305 20 L 15.396 20 L 15.396 19.882 L 16.488 19.882 L 16.488 20 L 17.579 20 L 17.579 19.882 L 18.671 19.882 L 18.671 20 L 19.762 20 L 19.762 19.882 L 20.854 19.882 L 20.854 20 L 21.945 20 L 21.945 19.882 L 23.037 19.882 L 23.037 20 L 24.007 20 L 24.007 18.546 L 24.125 18.546 L 24.125 17.454 L 24.007 17.454 L 24.007 16.363 L 24.007 16 L 23.037 16 L 23.037 16.118 L 21.945 16.118 L 21.945 16 L 20.854 16 L 20.854 16.118 L 19.762 16.118 L 19.762 16 L 18.671 16 L 18.671 16.118 L 17.579 16.118 L 17.579 16 L 16.488 16 L 16.488 16.118 L 15.396 16.118 L 15.396 16 L 14.305 16 L 14.305 16.118 L 13.213 16.118 L 13.213 16 L 12.243 16 Z" id="right_outsideCutPath" stroke="#FF0000" stroke-width="0.1" style="stroke:#FF0000;stroke-width:0.1" vector-effect="non-scaling-stroke"/><path d="M 18.622 18.208 L 18.558 18.208 L 18.558 17.931 A 0.183 0.183 0 0 0 18.556 17.902 Q 18.553 17.887 18.548 17.875 A 0.077 0.077 0 0 0 18.534 17.853 Q 18.514 17.832 18.478 17.828 A 0.172 0.172 0 0 0 18.459 17.827 Q 18.392 17.827 18.361 17.864 Q 18.332 17.897 18.33 17.97 A 0.419 0.419 0 0 0 18.329 17.984 L 18.329 18.208 L 18.265 18.208 L 18.265 17.6 L 18.329 17.6 L 18.329 17.784 A 0.583 0.583 0 0 1 18.329 17.806 Q 18.328 17.825 18.326 17.839 L 18.33 17.839 Q 18.349 17.808 18.385 17.79 A 0.166 0.166 0 0 1 18.439 17.774 A 0.21 0.21 0 0 1 18.465 17.773 A 0.263 0.263 0 0 1 18.51 17.776 Q 18.533 17.78 18.552 17.789 A 0.117 0.117 0 0 1 18.583 17.81 Q 18.614 17.839 18.621 17.894 A 0.28 0.28 0 0 1 18.622 17.929 L 18.622 18.208 Z M 18.029 17.78 L 18.177 17.78 L 18.177 17.821 L 18.097 17.83 A 0.105 0.105 0 0 1 18.107 17.844 Q 18.111 17.851 18.114 17.859 A 0.2 0.2 0 0 1 18.117 17.866 A 0.125 0.125 0 0 1 18.124 17.896 A 0.16 0.16 0 0 1 18.126 17.916 Q 18.126 17.979 18.083 18.016 A 0.144 0.144 0 0 1 18.026 18.046 Q 18.005 18.052 17.979 18.053 A 0.282 0.282 0 0 1 17.965 18.054 Q 17.946 18.054 17.929 18.05 A 0.115 0.115 0 0 0 17.91 18.062 Q 17.887 18.081 17.887 18.105 A 0.034 0.034 0 0 0 17.889 18.116 Q 17.892 18.126 17.902 18.131 Q 17.916 18.14 17.951 18.14 L 18.027 18.14 Q 18.074 18.14 18.106 18.153 A 0.117 0.117 0 0 1 18.134 18.169 A 0.095 0.095 0 0 1 18.169 18.23 A 0.142 0.142 0 0 1 18.171 18.254 Q 18.171 18.324 18.116 18.361 A 0.155 0.155 0 0 1 18.114 18.363 Q 18.074 18.389 18.009 18.397 A 0.514 0.514 0 0 1 17.948 18.4 Q 17.864 18.4 17.818 18.369 A 0.103 0.103 0 0 1 17.785 18.333 Q 17.774 18.313 17.773 18.288 A 0.137 0.137 0 0 1 17.773 18.28 A 0.099 0.099 0 0 1 17.798 18.213 A 0.113 0.113 0 0 1 17.837 18.185 A 0.16 0.16 0 0 1 17.868 18.174 A 0.067 0.067 0 0 1 17.842 18.153 A 0.08 0.08 0 0 1 17.841 18.151 A 0.06 0.06 0 0 1 17.83 18.119 A 0.074 0.074 0 0 1 17.829 18.115 Q 17.829 18.091 17.842 18.074 A 0.093 0.093 0 0 1 17.854 18.06 Q 17.865 18.05 17.881 18.04 Q 17.848 18.026 17.827 17.993 A 0.134 0.134 0 0 1 17.807 17.929 A 0.163 0.163 0 0 1 17.806 17.918 A 0.187 0.187 0 0 1 17.811 17.874 A 0.123 0.123 0 0 1 17.849 17.81 A 0.138 0.138 0 0 1 17.901 17.781 Q 17.922 17.774 17.948 17.773 A 0.286 0.286 0 0 1 17.968 17.772 A 0.249 0.249 0 0 1 18.001 17.774 A 0.189 0.189 0 0 1 18.029 17.78 Z M 18.953 18.154 L 18.953 18.204 A 0.064 0.064 0 0 1 18.945 18.207 Q 18.937 18.21 18.925 18.212 A 0.243 0.243 0 0 1 18.921 18.212 A 0.281 0.281 0 0 1 18.903 18.215 Q 18.893 18.216 18.885 18.216 A 0.169 0.169 0 0 1 18.835 18.209 Q 18.78 18.192 18.765 18.132 A 0.204 0.204 0 0 1 18.76 18.085 L 18.76 17.83 L 18.699 17.83 L 18.699 17.799 L 18.76 17.772 L 18.788 17.68 L 18.825 17.68 L 18.825 17.78 L 18.949 17.78 L 18.949 17.83 L 18.825 17.83 L 18.825 18.082 A 0.131 0.131 0 0 0 18.827 18.105 Q 18.831 18.127 18.844 18.141 A 0.06 0.06 0 0 0 18.881 18.161 A 0.087 0.087 0 0 0 18.894 18.162 A 0.213 0.213 0 0 0 18.925 18.16 A 0.195 0.195 0 0 0 18.927 18.16 Q 18.937 18.158 18.945 18.156 A 0.136 0.136 0 0 0 18.952 18.155 Z M 17.544 17.777 L 17.535 17.837 Q 17.508 17.831 17.488 17.831 A 0.112 0.112 0 0 0 17.405 17.867 A 0.154 0.154 0 0 0 17.399 17.873 A 0.148 0.148 0 0 0 17.363 17.956 A 0.197 0.197 0 0 0 17.362 17.978 L 17.362 18.208 L 17.297 18.208 L 17.297 17.78 L 17.351 17.78 L 17.358 17.859 L 17.362 17.859 Q 17.385 17.817 17.419 17.795 A 0.129 0.129 0 0 1 17.493 17.772 A 0.298 0.298 0 0 1 17.519 17.773 A 0.217 0.217 0 0 1 17.544 17.777 Z M 17.689 17.78 L 17.689 18.208 L 17.624 18.208 L 17.624 17.78 L 17.689 17.78 Z M 18.006 18.198 L 17.929 18.198 A 0.149 0.149 0 0 0 17.902 18.2 Q 17.887 18.203 17.875 18.209 A 0.076 0.076 0 0 0 17.86 18.219 Q 17.835 18.24 17.835 18.28 A 0.065 0.065 0 0 0 17.84 18.304 Q 17.847 18.321 17.865 18.332 A 0.104 0.104 0 0 0 17.89 18.343 Q 17.902 18.347 17.917 18.349 A 0.266 0.266 0 0 0 17.948 18.35 Q 18.03 18.35 18.07 18.326 A 0.095 0.095 0 0 0 18.091 18.308 A 0.071 0.071 0 0 0 18.109 18.26 Q 18.109 18.238 18.101 18.225 A 0.041 0.041 0 0 0 18.087 18.212 A 0.062 0.062 0 0 0 18.073 18.205 Q 18.057 18.2 18.033 18.199 A 0.413 0.413 0 0 0 18.006 18.198 Z M 17.871 17.917 A 0.127 0.127 0 0 0 17.873 17.943 Q 17.879 17.969 17.896 17.985 Q 17.921 18.008 17.967 18.008 A 0.141 0.141 0 0 0 18.004 18.003 Q 18.062 17.988 18.062 17.916 A 0.139 0.139 0 0 0 18.057 17.877 Q 18.04 17.819 17.965 17.819 Q 17.92 17.819 17.895 17.844 A 0.078 0.078 0 0 0 17.876 17.875 Q 17.872 17.888 17.871 17.903 A 0.171 0.171 0 0 0 17.871 17.917 Z M 17.619 17.652 A 0.072 0.072 0 0 0 17.619 17.664 A 0.077 0.077 0 0 0 17.619 17.671 Q 17.62 17.678 17.621 17.683 A 0.033 0.033 0 0 0 17.629 17.696 A 0.036 0.036 0 0 0 17.643 17.705 A 0.041 0.041 0 0 0 17.657 17.707 Q 17.672 17.707 17.684 17.696 Q 17.692 17.689 17.694 17.676 A 0.067 0.067 0 0 0 17.695 17.664 A 0.074 0.074 0 0 0 17.695 17.657 Q 17.694 17.65 17.692 17.645 A 0.033 0.033 0 0 0 17.684 17.631 A 0.038 0.038 0 0 0 17.657 17.621 A 0.049 0.049 0 0 0 17.654 17.621 A 0.037 0.037 0 0 0 17.629 17.631 A 0.03 0.03 0 0 0 17.623 17.641 Q 17.621 17.646 17.619 17.652 Z" id="right_labelLayer" stroke="#777777" fill="#777777" style="stroke:#777777;fill:#777777" vector-effect="non-scaling-stroke"/><path d="M 24.368 0.118 L 24.368 1.088 L 24.25 1.088 L 24.25 2.18 L 24.368 2.18 L 24.368 3.271 L 24.25 3.271 L 24.25 4.363 L 24.368 4.363 L 24.368 5.454 L 24.25 5.454 L 24.25 6.546 L 24.368 6.546 L 24.368 7.637 L 24.25 7.637 L 24.25 8.729 L 24.368 8.729 L 24.368 9.82 L 24.25 9.82 L 24.25 10.912 L 24.368 10.912 L 24.368 11.882 L 25.338 11.882 L 25.338 12 L 26.43 12 L 26.43 11.882 L 27.521 11.882 L 27.521 12 L 28.613 12 L 28.613 11.882 L 29.704 11.882 L 29.704 12 L 30.796 12 L 30.796 11.882 L 31.887 11.882 L 31.887 12 L 32.979 12 L 32.979 11.882 L 34.07 11.882 L 34.07 12 L 35.162 12 L 35.162 11.882 L 36.132 11.882 L 36.132 10.912 L 36.25 10.912 L 36.25 9.82 L 36.132 9.82 L 36.132 8.729 L 36.25 8.729 L 36.25 7.637 L 36.132 7.637 L 36.132 6.546 L 36.25 6.546 L 36.25 5.454 L 36.132 5.454 L 36.132 4.363 L 36.25 4.363 L 36.25 3.271 L 36.132 3.271 L 36.132 2.18 L 36.25 2.18 L 36.25 1.088 L 36.132 1.088 L 36.132 0.118 L 35.162 0.118 L 35.162 0 L 34.07 0 L 34.07 0.118 L 32.979 0.118 L 32.979 0 L 31.887 0 L 31.887 0.118 L 30.796 0.118 L 30.796 0 L 29.704 0 L 29.704 0.118 L 28.613 0.118 L 28.613 0 L 27.521 0 L 27.521 0.118 L 26.43 0.118 L 26.43 0 L 25.338 0 L 25.338 0.118 L 24.368 0.118 Z" id="bottom_outsideCutPath" stroke="#FF0000" stroke-width="0.1" style="stroke:#FF0000;stroke-width:0.1" vector-effect="non-scaling-stroke"/><path d="M 34.198 6.9 L 34.004 6.9 L 34.004 6.064 A 0.574 0.574 0 0 0 33.998 5.98 Q 33.991 5.937 33.978 5.902 A 0.235 0.235 0 0 0 33.938 5.834 Q 33.872 5.757 33.734 5.757 Q 33.552 5.757 33.466 5.862 A 0.321 0.321 0 0 0 33.411 5.96 Q 33.379 6.05 33.379 6.181 A 0.996 0.996 0 0 0 33.379 6.183 L 33.379 6.9 L 33.184 6.9 L 33.184 6.064 A 0.574 0.574 0 0 0 33.179 5.98 Q 33.172 5.937 33.159 5.902 A 0.235 0.235 0 0 0 33.119 5.834 A 0.204 0.204 0 0 0 33.025 5.773 Q 32.977 5.757 32.914 5.757 A 0.483 0.483 0 0 0 32.814 5.767 Q 32.752 5.78 32.706 5.811 A 0.255 0.255 0 0 0 32.646 5.867 Q 32.561 5.977 32.561 6.226 L 32.561 6.9 L 32.366 6.9 L 32.366 5.616 L 32.525 5.616 L 32.556 5.791 L 32.566 5.791 A 0.382 0.382 0 0 1 32.721 5.645 A 0.462 0.462 0 0 1 32.903 5.594 A 0.558 0.558 0 0 1 32.945 5.592 Q 33.246 5.592 33.339 5.81 L 33.348 5.81 A 0.406 0.406 0 0 1 33.501 5.658 A 0.488 0.488 0 0 1 33.515 5.651 A 0.492 0.492 0 0 1 33.695 5.596 A 0.614 0.614 0 0 1 33.763 5.592 A 0.676 0.676 0 0 1 33.886 5.603 Q 34.014 5.626 34.09 5.704 A 0.335 0.335 0 0 1 34.162 5.822 Q 34.181 5.874 34.19 5.938 A 0.892 0.892 0 0 1 34.198 6.062 L 34.198 6.9 Z M 26.496 6.735 L 26.482 6.735 L 26.441 6.9 L 26.302 6.9 L 26.302 5.077 L 26.496 5.077 L 26.496 5.52 A 4.056 4.056 0 0 1 26.494 5.657 Q 26.492 5.721 26.488 5.779 A 2.456 2.456 0 0 1 26.487 5.787 L 26.496 5.787 A 0.442 0.442 0 0 1 26.819 5.599 A 0.664 0.664 0 0 1 26.9 5.595 A 0.595 0.595 0 0 1 27.067 5.617 A 0.445 0.445 0 0 1 27.293 5.767 A 0.573 0.573 0 0 1 27.393 5.961 Q 27.418 6.041 27.427 6.136 A 1.249 1.249 0 0 1 27.433 6.257 A 1.141 1.141 0 0 1 27.418 6.449 Q 27.4 6.551 27.362 6.633 A 0.547 0.547 0 0 1 27.292 6.748 A 0.461 0.461 0 0 1 26.964 6.92 A 0.66 0.66 0 0 1 26.9 6.923 A 0.59 0.59 0 0 1 26.751 6.905 A 0.513 0.513 0 0 1 26.671 6.877 A 0.431 0.431 0 0 1 26.496 6.735 Z M 29.813 6.739 L 29.813 6.888 A 0.191 0.191 0 0 1 29.79 6.897 Q 29.766 6.905 29.731 6.911 A 0.728 0.728 0 0 1 29.72 6.913 A 0.843 0.843 0 0 1 29.665 6.921 Q 29.639 6.923 29.616 6.923 A 0.498 0.498 0 0 1 29.609 6.923 Q 29.312 6.923 29.252 6.674 A 0.611 0.611 0 0 1 29.236 6.531 L 29.236 5.767 L 29.052 5.767 L 29.052 5.673 L 29.236 5.592 L 29.318 5.318 L 29.431 5.318 L 29.431 5.616 L 29.804 5.616 L 29.804 5.767 L 29.431 5.767 L 29.431 6.523 Q 29.431 6.604 29.458 6.659 A 0.189 0.189 0 0 0 29.486 6.701 A 0.181 0.181 0 0 0 29.597 6.76 A 0.26 0.26 0 0 0 29.637 6.763 A 0.639 0.639 0 0 0 29.731 6.756 A 0.592 0.592 0 0 0 29.737 6.755 A 1.053 1.053 0 0 0 29.765 6.75 Q 29.794 6.745 29.813 6.739 Z M 30.66 6.739 L 30.66 6.888 A 0.191 0.191 0 0 1 30.637 6.897 Q 30.613 6.905 30.579 6.911 A 0.728 0.728 0 0 1 30.567 6.913 A 0.843 0.843 0 0 1 30.512 6.921 Q 30.486 6.923 30.463 6.923 A 0.498 0.498 0 0 1 30.456 6.923 Q 30.159 6.923 30.099 6.674 A 0.611 0.611 0 0 1 30.084 6.531 L 30.084 5.767 L 29.9 5.767 L 29.9 5.673 L 30.084 5.592 L 30.166 5.318 L 30.278 5.318 L 30.278 5.616 L 30.651 5.616 L 30.651 5.767 L 30.278 5.767 L 30.278 6.523 Q 30.278 6.604 30.305 6.659 A 0.189 0.189 0 0 0 30.333 6.701 A 0.181 0.181 0 0 0 30.444 6.76 A 0.26 0.26 0 0 0 30.484 6.763 A 0.639 0.639 0 0 0 30.578 6.756 A 0.592 0.592 0 0 0 30.584 6.755 A 1.053 1.053 0 0 0 30.612 6.75 Q 30.641 6.745 30.66 6.739 Z M 28.881 6.257 Q 28.881 6.571 28.723 6.747 Q 28.565 6.923 28.286 6.923 A 0.625 0.625 0 0 1 28.104 6.898 A 0.542 0.542 0 0 1 27.98 6.843 A 0.527 0.527 0 0 1 27.788 6.638 A 0.639 0.639 0 0 1 27.774 6.611 A 0.72 0.72 0 0 1 27.713 6.414 A 0.973 0.973 0 0 1 27.701 6.257 Q 27.701 6.017 27.792 5.859 A 0.537 0.537 0 0 1 27.858 5.767 A 0.515 0.515 0 0 1 28.158 5.604 A 0.756 0.756 0 0 1 28.294 5.592 Q 28.564 5.592 28.722 5.771 A 0.606 0.606 0 0 1 28.855 6.028 Q 28.881 6.132 28.881 6.257 Z M 32.025 6.257 Q 32.025 6.571 31.867 6.747 Q 31.709 6.923 31.43 6.923 A 0.625 0.625 0 0 1 31.249 6.898 A 0.542 0.542 0 0 1 31.124 6.843 A 0.527 0.527 0 0 1 30.932 6.638 A 0.639 0.639 0 0 1 30.918 6.611 A 0.72 0.72 0 0 1 30.858 6.414 A 0.973 0.973 0 0 1 30.845 6.257 Q 30.845 6.017 30.936 5.859 A 0.537 0.537 0 0 1 31.002 5.767 A 0.515 0.515 0 0 1 31.303 5.604 A 0.756 0.756 0 0 1 31.438 5.592 Q 31.708 5.592 31.867 5.771 A 0.606 0.606 0 0 1 31.999 6.028 Q 32.025 6.132 32.025 6.257 Z M 27.944 6.527 A 0.408 0.408 0 0 0 28.001 6.632 Q 28.1 6.761 28.291 6.761 A 0.452 0.452 0 0 0 28.41 6.746 A 0.314 0.314 0 0 0 28.581 6.632 Q 28.68 6.504 28.68 6.257 Q 28.68 6.099 28.639 5.991 A 0.401 0.401 0 0 0 28.581 5.885 Q 28.482 5.757 28.288 5.757 A 0.463 0.463 0 0 0 28.173 5.771 A 0.31 0.31 0 0 0 28 5.883 Q 27.93 5.973 27.91 6.127 A 1.028 1.028 0 0 0 27.903 6.257 Q 27.903 6.416 27.944 6.527 Z M 31.088 6.527 A 0.408 0.408 0 0 0 31.145 6.632 Q 31.244 6.761 31.435 6.761 A 0.452 0.452 0 0 0 31.554 6.746 A 0.314 0.314 0 0 0 31.725 6.632 Q 31.824 6.504 31.824 6.257 Q 31.824 6.099 31.783 5.991 A 0.401 0.401 0 0 0 31.725 5.885 Q 31.626 5.757 31.432 5.757 A 0.463 0.463 0 0 0 31.317 5.771 A 0.31 0.31 0 0 0 31.144 5.883 Q 31.074 5.973 31.055 6.127 A 1.028 1.028 0 0 0 31.047 6.257 Q 31.047 6.416 31.088 6.527 Z M 26.871 5.757 Q 26.672 5.757 26.584 5.872 Q 26.496 5.986 26.496 6.257 Q 26.496 6.487 26.562 6.605 A 0.293 0.293 0 0 0 26.587 6.644 A 0.282 0.282 0 0 0 26.73 6.741 Q 26.778 6.756 26.836 6.759 A 0.626 0.626 0 0 0 26.876 6.761 A 0.388 0.388 0 0 0 26.986 6.746 A 0.28 0.28 0 0 0 27.143 6.63 A 0.447 0.447 0 0 0 27.199 6.51 Q 27.216 6.454 27.224 6.385 A 1.115 1.115 0 0 0 27.231 6.254 A 1.149 1.149 0 0 0 27.224 6.123 Q 27.208 5.98 27.152 5.894 A 0.323 0.323 0 0 0 27.143 5.88 A 0.284 0.284 0 0 0 26.963 5.766 A 0.45 0.45 0 0 0 26.871 5.757 Z" id="bottom_labelLayer" stroke="#777777" fill="#777777" style="stroke:#777777;fill:#777777" vector-effect="non-scaling-stroke"/></g></svg>